<svg width="100" height="27" viewBox="0 0 100 27" fill="none" xmlns="http://www.w3.org/2000/svg">
<g clip-path="url(#clip0_1363_7485)">
<path d="M0.800057 26.8508C0.800057 26.8508 0.774601 26.8508 0.800057 26.8508C0.723688 26.8237 0.698231 26.783 0.749144 26.7423C6.04408 22.9724 14.0374 20.1788 22.6671 19.1075C31.2968 18.0362 40.7666 18.6464 48.6581 20.7755C50.9747 21.3993 53.1894 22.1587 55.3277 22.891C58.3825 23.9352 61.5645 25.0201 65.0011 25.7117C71.2634 26.9729 78.3912 26.9051 84.5517 25.5218C90.7121 24.1386 95.8034 21.4807 98.5018 18.2125C98.5272 18.1718 98.6036 18.1582 98.68 18.1718C98.7563 18.1853 98.7818 18.226 98.7564 18.2667C96.0325 21.562 90.8903 24.2471 84.6535 25.6439C78.4167 27.0407 71.2125 27.1085 64.8993 25.8337C61.4372 25.1286 58.2552 24.0437 55.175 22.9995C53.0366 22.2672 50.8219 21.5078 48.5308 20.884C40.6903 18.782 31.2714 18.1853 22.718 19.2567C14.1647 20.328 6.22227 23.0809 0.952795 26.8373C0.927339 26.8508 0.85097 26.8644 0.800057 26.8508Z" stroke="#749CC6" stroke-miterlimit="10"/>
<path d="M0.800057 18.5785C0.800057 18.565 0.774601 18.565 0.800057 18.5785C0.723688 18.5514 0.698231 18.5107 0.749144 18.4701C6.04408 14.7001 14.0374 11.9065 22.6671 10.8352C31.2968 9.76388 40.7666 10.3741 48.6581 12.5032C50.9747 13.127 53.1894 13.8864 55.3277 14.6187C58.3825 15.6629 61.5645 16.7478 65.0011 17.4394C71.2634 18.7006 78.3912 18.6328 84.5517 17.2496C90.7121 15.8663 95.8034 13.2084 98.5018 9.94018C98.5272 9.89949 98.6036 9.88593 98.68 9.89949C98.7563 9.91306 98.7818 9.95374 98.7564 9.99442C96.0325 13.2897 90.8903 15.9748 84.6535 17.3716C78.4167 18.7684 71.2125 18.8362 64.8993 17.5615C61.4372 16.8563 58.2552 15.7714 55.175 14.7272C53.0366 13.9949 50.8219 13.2355 48.5308 12.6117C40.6903 10.5097 31.2714 9.89949 22.718 10.9708C14.1647 12.0421 6.22227 14.795 0.952795 18.5514C0.927339 18.5785 0.85097 18.5921 0.800057 18.5785Z" stroke="#749CC6" stroke-miterlimit="10"/>
<path d="M0.800057 8.80114C0.800057 8.78758 0.774601 8.78758 0.800057 8.80114C0.723688 8.77402 0.698231 8.73334 0.749144 8.69266C6.04408 4.92269 14.0374 2.12912 22.6671 1.0578C31.2968 -0.0135205 40.7666 0.596726 48.6581 2.72581C50.9747 3.34961 53.1894 4.10903 55.3277 4.84133C58.3825 5.88553 61.5645 6.97041 65.0011 7.66202C71.2634 8.92319 78.3912 8.85539 84.5517 7.47216C90.7121 6.08894 95.8034 3.43098 98.5018 0.162773C98.5272 0.12209 98.6036 0.108529 98.68 0.12209C98.7563 0.135651 98.7818 0.176334 98.7564 0.217017C96.0325 3.51235 90.8903 6.19743 84.6535 7.59421C78.4167 8.991 71.2125 9.0588 64.8993 7.78407C61.4372 7.09246 58.2552 6.00757 55.2004 4.96338C53.0621 4.23108 50.8474 3.47166 48.5563 2.84786C40.6903 0.732336 31.2714 0.12209 22.718 1.19341C14.1647 2.26473 6.22227 5.01762 0.952795 8.77402C0.927339 8.80114 0.85097 8.81471 0.800057 8.80114Z" stroke="#749CC6" stroke-miterlimit="10"/>
</g>
<defs>
<clipPath id="clip0_1363_7485">
<rect width="98.5672" height="27" fill="white" transform="translate(0.46875)"/>
</clipPath>
</defs>
</svg>
