<svg width="99" height="27" viewBox="0 0 99 27" fill="none" xmlns="http://www.w3.org/2000/svg">
<g clip-path="url(#clip0_1363_7492)">
<path d="M98.2351 26.8508C98.2351 26.8508 98.2606 26.8508 98.2351 26.8508C98.3115 26.8237 98.3369 26.783 98.286 26.7423C92.9911 22.9724 84.9978 20.1788 76.368 19.1075C67.7383 18.0362 58.2685 18.6464 50.377 20.7755C48.0605 21.3993 45.8458 22.1587 43.7075 22.891C40.6527 23.9352 37.4706 25.0201 34.034 25.7117C27.7717 26.9729 20.6439 26.9051 14.4835 25.5218C8.32304 24.1386 3.23175 21.4807 0.533369 18.2125C0.507913 18.1718 0.431548 18.1582 0.355179 18.1718C0.27881 18.1853 0.253348 18.226 0.278805 18.2667C3.00264 21.562 8.14484 24.2471 14.3817 25.6439C20.6185 27.0407 27.8226 27.1085 34.1358 25.8337C37.5979 25.1286 40.78 24.0437 43.8602 22.9995C45.9985 22.2672 48.2132 21.5078 50.5043 20.884C58.3449 18.782 67.7638 18.1853 76.3171 19.2567C84.8705 20.328 92.8129 23.0809 98.0824 26.8373C98.1078 26.8508 98.1842 26.8644 98.2351 26.8508Z" stroke="#749CC6" stroke-miterlimit="10"/>
<path d="M98.2351 18.5785C98.2351 18.565 98.2606 18.565 98.2351 18.5785C98.3115 18.5514 98.3369 18.5107 98.286 18.4701C92.9911 14.7001 84.9978 11.9065 76.368 10.8352C67.7383 9.76388 58.2685 10.3741 50.377 12.5032C48.0605 13.127 45.8458 13.8864 43.7075 14.6187C40.6527 15.6629 37.4706 16.7478 34.034 17.4394C27.7717 18.7006 20.6439 18.6328 14.4835 17.2496C8.32304 15.8663 3.23175 13.2084 0.533369 9.94018C0.507913 9.89949 0.431548 9.88593 0.355179 9.89949C0.27881 9.91306 0.253348 9.95374 0.278805 9.99442C3.00264 13.2897 8.14484 15.9748 14.3817 17.3716C20.6185 18.7684 27.8226 18.8362 34.1358 17.5615C37.5979 16.8563 40.78 15.7714 43.8602 14.7272C45.9985 13.9949 48.2132 13.2355 50.5043 12.6117C58.3449 10.5097 67.7638 9.89949 76.3171 10.9708C84.8705 12.0421 92.8129 14.795 98.0824 18.5514C98.1078 18.5785 98.1842 18.5921 98.2351 18.5785Z" stroke="#749CC6" stroke-miterlimit="10"/>
<path d="M98.2351 8.80114C98.2351 8.78758 98.2606 8.78758 98.2351 8.80114C98.3115 8.77402 98.3369 8.73334 98.286 8.69266C92.9911 4.92269 84.9978 2.12912 76.368 1.0578C67.7383 -0.0135205 58.2685 0.596726 50.377 2.72581C48.0605 3.34961 45.8458 4.10903 43.7075 4.84133C40.6527 5.88553 37.4706 6.97041 34.034 7.66202C27.7717 8.92319 20.6439 8.85539 14.4835 7.47216C8.32304 6.08894 3.23175 3.43098 0.533369 0.162773C0.507913 0.12209 0.431548 0.108529 0.355179 0.12209C0.27881 0.135651 0.253348 0.176334 0.278805 0.217017C3.00264 3.51235 8.14484 6.19743 14.3817 7.59421C20.6185 8.991 27.8226 9.0588 34.1358 7.78407C37.5979 7.09246 40.78 6.00757 43.8347 4.96338C45.9731 4.23108 48.1878 3.47166 50.4789 2.84786C58.3449 0.732336 67.7638 0.12209 76.3171 1.19341C84.8705 2.26473 92.8129 5.01762 98.0824 8.77402C98.1078 8.80114 98.1842 8.81471 98.2351 8.80114Z" stroke="#749CC6" stroke-miterlimit="10"/>
</g>
<defs>
<clipPath id="clip0_1363_7492">
<rect width="98.5672" height="27" fill="white" transform="matrix(-1 0 0 1 98.5664 0)"/>
</clipPath>
</defs>
</svg>
