<svg width="167" height="165" viewBox="0 0 167 165" fill="none" xmlns="http://www.w3.org/2000/svg">
<g clip-path="url(#clip0_264_2947)">
<path d="M99.0703 118.766C99.0703 119.563 99.7132 120.208 100.502 120.208C101.296 120.208 101.945 119.569 101.945 118.766C101.945 117.981 101.296 117.329 100.502 117.329C99.7132 117.335 99.0703 117.981 99.0703 118.766Z" fill="#F5F5F5"/>
<path d="M146.495 125.774C150.158 124.554 153.833 123.015 157.442 121.132C156.951 117.088 156.15 113.207 155.083 109.525C158.345 107.473 161.523 105.101 164.58 102.397C163.13 98.5885 161.408 95.0154 159.492 91.6897C162.148 88.9192 164.665 85.8531 166.994 82.5092C164.659 79.1533 162.148 76.0932 159.492 73.3107C161.408 69.991 163.13 66.4118 164.58 62.6093C161.523 59.9053 158.345 57.5272 155.083 55.4871C156.15 51.7992 156.951 47.9122 157.442 43.8682C153.833 41.979 150.152 40.4459 146.495 39.2267C146.653 35.3879 146.489 31.4345 145.992 27.3905C142.032 26.4188 138.09 25.785 134.245 25.4651C133.475 21.7048 132.377 17.8963 130.928 14.0937C126.834 14.0877 122.874 14.4136 119.059 15.0232C117.41 11.5527 115.427 8.1183 113.098 4.77448C109.144 5.74624 105.365 7.00168 101.812 8.51062C99.3736 5.54102 96.6082 2.68006 93.5456 -0.00585938C89.9371 1.88334 86.5834 4.00793 83.4844 6.3136C80.4036 4.01397 77.0499 1.88937 73.4355 0.000176401C70.3668 2.6861 67.6074 5.54705 65.1694 8.51666C61.6277 7.00771 57.8495 5.75227 53.8894 4.78051C51.5666 8.12433 49.5835 11.5587 47.9279 15.0293C44.1133 14.4196 40.1592 14.0937 36.0716 14.0997C34.6161 17.9023 33.5185 21.7109 32.7543 25.4712C28.9155 25.785 24.9674 26.4248 21.0073 27.3966C20.51 31.4345 20.3523 35.394 20.51 39.2327C16.847 40.452 13.1779 41.985 9.55128 43.8742C10.0486 47.9122 10.8491 51.7992 11.9104 55.4931C8.65373 57.5272 5.46983 59.9113 2.43148 62.6153C3.85666 66.4179 5.58506 69.9971 7.51965 73.3167C4.85124 76.0992 2.33445 79.1594 0.0117188 82.5153C2.33445 85.8651 4.85124 88.9313 7.51965 91.6957C5.58506 95.0154 3.86272 98.5946 2.43148 102.403C5.46983 105.107 8.65373 107.479 11.9104 109.531C10.8552 113.219 10.0425 117.094 9.55128 121.138C13.1779 123.021 16.847 124.567 20.51 125.78C20.3523 129.618 20.51 133.59 21.0073 137.61C24.9674 138.594 28.9155 139.209 32.7543 139.529C33.5245 143.29 34.6222 147.092 36.0716 150.895C40.1592 150.895 44.1133 150.581 47.9279 149.965C49.5835 153.436 51.5666 156.876 53.8894 160.22C57.8556 159.248 61.6277 157.987 65.1694 156.484C67.6074 159.453 70.3728 162.308 73.4355 165C77.0439 163.105 80.3976 160.986 83.4905 158.675C86.5895 160.98 89.9432 163.105 93.5516 165C96.6142 162.308 99.3736 159.453 101.818 156.484C105.378 157.987 109.156 159.248 113.104 160.22C115.439 156.876 117.422 153.436 119.065 149.965C122.874 150.581 126.84 150.901 130.934 150.895C132.377 147.092 133.481 143.283 134.251 139.529C138.096 139.209 142.038 138.588 145.998 137.61C146.489 133.578 146.659 129.612 146.495 125.774Z" fill="#4677AB"/>
<path d="M15.6406 82.503C15.6406 119.786 46.0241 150.031 83.4971 150.031C120.982 150.031 151.36 119.792 151.36 82.503C151.36 45.2019 120.982 14.9626 83.4971 14.9626C46.0302 14.9626 15.6406 45.2019 15.6406 82.503Z" fill="white"/>
<path d="M83.5082 150.532C45.817 150.532 15.1484 120.009 15.1484 82.503C15.1484 44.9907 45.817 14.4678 83.5082 14.4678C121.2 14.4678 151.856 44.9907 151.856 82.503C151.856 120.009 121.2 150.532 83.5082 150.532Z" fill="white"/>
<path d="M35.5566 83.4507C35.5566 109.803 57.0131 131.164 83.491 131.164C109.987 131.164 131.45 109.803 131.45 83.4507C131.45 57.0925 109.987 35.7258 83.491 35.7258C57.0191 35.7319 35.5566 57.0985 35.5566 83.4507Z" fill="#4677AB"/>
<path d="M29.8324 76.6966C29.4807 77.1372 29.0379 77.445 28.4982 77.6321C27.9585 77.8192 27.3641 77.8615 26.7031 77.7589L24.1742 77.3605C23.5192 77.2579 22.9612 77.0346 22.5064 76.6905C22.0516 76.3465 21.7241 75.9119 21.53 75.3928C21.3359 74.8677 21.2874 74.2883 21.3845 73.6606C21.4876 73.0268 21.7119 72.4957 22.0576 72.055C22.4094 71.6144 22.8521 71.3066 23.3918 71.1195C23.9316 70.9324 24.5259 70.8901 25.1869 70.9927L27.7159 71.3911C28.3708 71.4937 28.9288 71.717 29.3836 72.0611C29.8385 72.4051 30.166 72.8397 30.36 73.3648C30.5541 73.8899 30.6026 74.4633 30.5056 75.0971C30.4085 75.7308 30.1781 76.2559 29.8324 76.6966ZM28.9712 73.9442C28.8621 73.6666 28.6862 73.4372 28.4376 73.2562C28.1889 73.0751 27.8857 72.9544 27.5279 72.9L24.914 72.4896C24.5562 72.4353 24.2348 72.4534 23.9376 72.55C23.6405 72.6465 23.404 72.8095 23.216 73.0389C23.028 73.2682 22.9067 73.5519 22.8521 73.8899C22.7975 74.2279 22.8278 74.5297 22.9309 74.8074C23.0401 75.085 23.216 75.3144 23.4646 75.4954C23.7132 75.6765 24.0165 75.7972 24.3743 75.8515L26.9881 76.262C27.3459 76.3163 27.6674 76.2982 27.9645 76.2016C28.2617 76.1051 28.4982 75.9421 28.6862 75.7127C28.8742 75.4834 28.9955 75.1997 29.0501 74.8617C29.1047 74.5297 29.0743 74.2219 28.9712 73.9442ZM27.916 74.8315L27.0548 73.908L30.2084 70.9445L31.0756 71.8679L27.916 74.8315Z" fill="#4677AB"/>
<path d="M31.4514 68.8077C31.0572 69.188 30.5781 69.4234 30.0202 69.5139C29.4622 69.6045 28.8497 69.5381 28.1705 69.3268L22.6699 67.5945L23.1187 66.1822L28.6617 67.9265C29.2257 68.1016 29.7048 68.0955 30.1051 67.9024C30.5053 67.7092 30.7904 67.3531 30.9541 66.822C31.1239 66.2908 31.0997 65.8321 30.8813 65.4458C30.663 65.0595 30.2749 64.7758 29.7169 64.6008L24.1739 62.8565L24.6227 61.4441L30.1233 63.1764C30.7964 63.3876 31.3362 63.6894 31.7425 64.0878C32.1488 64.4861 32.3975 64.9448 32.5066 65.4881C32.6097 66.0252 32.5612 66.6228 32.355 67.2686C32.1488 67.9144 31.8456 68.4275 31.4514 68.8077Z" fill="#4677AB"/>
<path d="M26.6855 56.7784L27.1525 55.8066L36.7709 56.6637L36.0796 58.0942L28.9961 57.2854L34.0479 62.2891L33.3566 63.7195L26.6855 56.7784ZM31.2279 60.9431L33.2899 56.6758L34.5755 57.2914L32.5136 61.5587L31.2279 60.9431Z" fill="#4677AB"/>
<path d="M29.8027 50.9056L30.6275 49.6743L38.1536 54.6599L37.3289 55.8912L29.8027 50.9056ZM36.5283 54.5271L39.4272 50.1874L40.6098 50.972L37.7109 55.3117L36.5283 54.5271Z" fill="#4677AB"/>
<path d="M42.3323 48.9984L41.3741 50.1694L34.3574 44.4837L35.3156 43.3127L42.3323 48.9984Z" fill="#4677AB"/>
<path d="M36.5273 41.7915L41.0879 37.1802L42.1007 38.1761L37.5401 42.7874L36.5273 41.7915ZM38.8198 40.53L39.8568 39.4798L45.7697 45.2742L44.7327 46.3244L38.8198 40.53Z" fill="#4677AB"/>
<path d="M48.638 38.0616L50.8577 40.8562L49.6933 41.7676L47.4736 38.973L41.9609 36.3836L43.2163 35.3998L47.1401 37.3675L46.1212 33.1123L47.3766 32.1284L48.638 38.0616Z" fill="#4677AB"/>
<path d="M57.2563 36.2749C56.7044 36.2568 56.195 36.0878 55.728 35.7558C55.2671 35.4299 54.8729 34.9591 54.5515 34.3494L53.4053 32.1585C53.0838 31.5488 52.9262 30.9573 52.9201 30.396C52.914 29.8286 53.0656 29.3156 53.3689 28.8509C53.6721 28.3861 54.1148 28.0058 54.691 27.7041C55.1701 27.4566 55.6613 27.3298 56.1586 27.3298C56.6559 27.3298 57.135 27.4566 57.6019 27.7101C58.0689 27.9636 58.4813 28.3257 58.8512 28.8026L57.4928 29.5088C57.2927 29.2854 57.0683 29.1164 56.8257 29.0017C56.5831 28.881 56.3345 28.8267 56.0858 28.8267C55.8372 28.8267 55.5946 28.8871 55.3702 29.0017C55.067 29.1587 54.8365 29.3639 54.6849 29.6174C54.5333 29.8709 54.4666 30.1546 54.4726 30.4684C54.4848 30.7823 54.5818 31.1143 54.7637 31.4583L55.9099 33.6493C56.0919 33.9933 56.3041 34.2589 56.5588 34.4521C56.8136 34.6392 57.0865 34.7478 57.3776 34.7659C57.6687 34.784 57.9719 34.7176 58.2751 34.5607C58.5056 34.44 58.6936 34.2831 58.8391 34.0778C58.9847 33.8787 59.0756 33.6433 59.1242 33.3777C59.1666 33.1121 59.1484 32.8284 59.0756 32.5327L60.4341 31.8265C60.61 32.4059 60.6706 32.9552 60.616 33.4743C60.5615 33.9933 60.3856 34.4581 60.1066 34.8685C59.8216 35.279 59.4395 35.6049 58.9604 35.8524C58.3782 36.1481 57.8081 36.293 57.2563 36.2749Z" fill="#4677AB"/>
<path d="M63.9387 33.1243C63.3868 33.0278 62.8956 32.7863 62.4771 32.4061C62.0526 32.0258 61.7312 31.5188 61.5128 30.8971L60.6577 28.4949C60.4333 27.8732 60.3666 27.2817 60.4515 26.7204C60.5364 26.1591 60.7669 25.6641 61.1308 25.2477C61.5007 24.8252 61.9859 24.5113 62.5923 24.294C63.1988 24.0828 63.7749 24.0224 64.3329 24.119C64.8847 24.2155 65.376 24.4509 65.7944 24.8372C66.2189 25.2175 66.5404 25.7245 66.7587 26.3462L67.6138 28.7484C67.8382 29.3701 67.9049 29.9616 67.82 30.5229C67.7351 31.0842 67.5046 31.5792 67.1408 31.9956C66.7708 32.4182 66.2857 32.732 65.6792 32.9493C65.0727 33.1606 64.4905 33.2149 63.9387 33.1243ZM65.9582 31.0541C66.1522 30.8307 66.2675 30.5652 66.3099 30.2573C66.3524 29.9495 66.3099 29.6296 66.1886 29.2916L65.3032 26.8049C65.1819 26.4669 65.0121 26.1892 64.7877 25.978C64.5633 25.7667 64.3025 25.6339 64.0114 25.5796C63.7203 25.5253 63.4111 25.5555 63.0896 25.6702C62.7682 25.7848 62.5135 25.9538 62.3194 26.1772C62.1254 26.4005 62.0101 26.6721 61.9677 26.9739C61.9252 27.2817 61.9677 27.6016 62.089 27.9396L62.9744 30.4263C63.0957 30.7644 63.2655 31.042 63.4899 31.2532C63.7143 31.4645 63.9751 31.5973 64.2662 31.6516C64.5573 31.7059 64.8665 31.6758 65.188 31.5611C65.5094 31.4464 65.7641 31.2774 65.9582 31.0541Z" fill="#4677AB"/>
<path d="M68.4336 22.5436L70.0225 22.2418L75.1531 28.3138L75.0379 28.5009L73.6976 21.5416L75.1167 21.27L76.8148 30.1004L75.2138 30.4082L70.1135 24.4388L70.2287 24.2517L71.5508 31.1083L70.1317 31.3799L68.4336 22.5436Z" fill="#4677AB"/>
<path d="M77.4512 21.0044L83.9463 20.7026L84.013 22.115L77.5179 22.4168L77.4512 21.0044ZM79.9983 21.6201L81.478 21.5537L81.8662 29.8046L80.3864 29.871L79.9983 21.6201Z" fill="#4677AB"/>
<path d="M85.9848 20.7449L87.4646 20.8716L86.7005 29.8468L85.2207 29.7201L85.9848 20.7449ZM86.2699 24.6561L89.3749 24.9156C89.5811 24.9337 89.7691 24.8975 89.9389 24.813C90.1087 24.7285 90.2421 24.5957 90.3452 24.4146C90.4483 24.2396 90.509 24.0223 90.5393 23.7809C90.5575 23.5394 90.5332 23.3222 90.4665 23.129C90.3938 22.9359 90.2846 22.785 90.133 22.6703C89.9814 22.5556 89.7994 22.4892 89.5932 22.4711L86.4882 22.2116L86.6095 20.7992L89.757 21.0648C90.2664 21.107 90.7031 21.2519 91.0669 21.5054C91.4308 21.7589 91.7037 22.0909 91.8856 22.5073C92.0676 22.9238 92.1343 23.3946 92.0858 23.9137C92.0433 24.4388 91.8978 24.8915 91.6491 25.2717C91.4005 25.652 91.0791 25.9356 90.6727 26.1228C90.2664 26.3099 89.8116 26.3763 89.3082 26.334L86.1607 26.0684L86.2699 24.6561ZM88.3439 25.9719L89.9025 25.821L91.9038 30.2814L90.1269 30.1305L88.3439 25.9719Z" fill="#4677AB"/>
<path d="M94.3174 30.4746C93.905 30.0943 93.6199 29.6356 93.4744 29.0863C93.3288 28.5371 93.3288 27.9395 93.4744 27.2997L94.0505 24.813C94.2021 24.1672 94.4629 23.636 94.8389 23.2075C95.2149 22.7789 95.6698 22.4892 96.2095 22.3263C96.7493 22.1693 97.3315 22.1633 97.9561 22.3082C98.5808 22.453 99.1023 22.7126 99.5147 23.0928C99.9271 23.4731 100.212 23.9318 100.358 24.481C100.509 25.0303 100.503 25.6278 100.358 26.2676L99.7816 28.7544C99.6299 29.4002 99.3692 29.9313 98.9932 30.3599C98.6172 30.7884 98.1562 31.0781 97.6226 31.2411C97.0828 31.398 96.5006 31.4041 95.876 31.2592C95.2513 31.1144 94.7358 30.8488 94.3174 30.4746ZM97.1374 29.8106C97.4224 29.7261 97.665 29.5632 97.8651 29.3278C98.0653 29.0924 98.2048 28.7966 98.2836 28.4526L98.884 25.8813C98.9628 25.5313 98.9689 25.2053 98.8961 24.9096C98.8234 24.6078 98.6717 24.3603 98.4534 24.1551C98.2351 23.9499 97.9622 23.8111 97.6286 23.7386C97.2951 23.6602 96.9858 23.6662 96.7007 23.7567C96.4157 23.8473 96.1731 24.0042 95.973 24.2396C95.7729 24.475 95.6334 24.7708 95.5545 25.1208L94.9542 27.686C94.8753 28.0361 94.8692 28.362 94.942 28.6578C95.0148 28.9596 95.1664 29.207 95.3847 29.4123C95.6031 29.6175 95.876 29.7563 96.2095 29.8287C96.5431 29.9012 96.8524 29.8951 97.1374 29.8106Z" fill="#4677AB"/>
<path d="M103.711 23.968L105.1 24.4931L101.873 32.901L100.484 32.3759L103.711 23.968ZM101.643 31.2954L106.537 33.1545L106.027 34.4763L101.133 32.6173L101.643 31.2954Z" fill="#4677AB"/>
<path d="M81.2467 135.02L82.3141 135.177L84.3457 144.575L82.7629 144.339L81.4347 137.368L78.1356 143.657L76.5527 143.422L81.2467 135.02ZM78.6026 140.567L83.3087 141.261L83.1025 142.662L78.3964 141.967L78.6026 140.567Z" fill="#4677AB"/>
<path d="M86.3594 135.63L87.8452 135.6L88.0393 144.599L86.5534 144.629L86.3594 135.63ZM87.1599 139.704L90.0527 139.644C90.2953 139.638 90.5015 139.577 90.6774 139.469C90.8532 139.354 90.9927 139.197 91.0897 138.992C91.1868 138.787 91.2353 138.551 91.2292 138.292C91.2232 138.026 91.1686 137.791 91.0655 137.592C90.9624 137.392 90.8168 137.236 90.6349 137.133C90.4469 137.024 90.2346 136.976 89.9981 136.976L87.1053 137.036L87.075 135.618L89.9253 135.558C90.4772 135.546 90.9624 135.648 91.3869 135.871C91.8114 136.095 92.145 136.409 92.3815 136.819C92.618 137.23 92.7514 137.712 92.7636 138.262C92.7757 138.811 92.6665 139.294 92.4482 139.716C92.2238 140.133 91.9085 140.465 91.49 140.7C91.0776 140.935 90.5924 141.062 90.0406 141.074L87.1902 141.135L87.1599 139.704Z" fill="#4677AB"/>
<path d="M93.5938 135.358L95.0553 135.087L96.7109 143.935L95.2494 144.207L93.5938 135.358ZM95.0492 139.251L97.8935 138.726C98.13 138.684 98.3241 138.587 98.4818 138.449C98.6395 138.31 98.7486 138.129 98.8093 137.911C98.8699 137.694 98.882 137.459 98.8335 137.199C98.785 136.934 98.694 136.716 98.5546 136.535C98.4151 136.354 98.2513 136.227 98.0512 136.149C97.8511 136.07 97.6327 136.058 97.3962 136.101L94.552 136.626L94.2912 135.232L97.093 134.712C97.6327 134.61 98.13 134.634 98.5849 134.785C99.0397 134.936 99.4157 135.189 99.725 135.557C100.028 135.926 100.234 136.378 100.331 136.915C100.435 137.453 100.404 137.948 100.253 138.4C100.101 138.853 99.8402 139.227 99.4703 139.523C99.1004 139.825 98.6455 140.024 98.0997 140.12L95.2979 140.64L95.0492 139.251Z" fill="#4677AB"/>
<path d="M100.732 133.892L102.133 133.397L105.141 141.889L103.74 142.378L100.732 133.892ZM102.612 137.338L105.554 136.306C105.748 136.24 105.905 136.131 106.021 135.98C106.136 135.829 106.209 135.654 106.227 135.449C106.245 135.244 106.215 135.026 106.136 134.791C106.057 134.562 105.942 134.375 105.796 134.23C105.651 134.085 105.487 133.988 105.305 133.946C105.123 133.904 104.929 133.916 104.729 133.988L101.794 135.02L101.321 133.686L104.298 132.642C104.777 132.473 105.238 132.431 105.675 132.509C106.112 132.588 106.5 132.781 106.833 133.089C107.167 133.397 107.422 133.795 107.598 134.29C107.773 134.791 107.828 135.262 107.761 135.708C107.695 136.155 107.513 136.547 107.222 136.885C106.93 137.217 106.542 137.471 106.069 137.64L103.092 138.684L102.612 137.338ZM105.05 137.694L106.409 136.916L110.078 140.163L108.392 140.754L105.05 137.694Z" fill="#4677AB"/>
<path d="M113.158 138.207C112.594 138.207 112.073 138.056 111.593 137.749C111.114 137.441 110.708 137 110.381 136.427L109.125 134.206C108.798 133.632 108.634 133.059 108.622 132.491C108.61 131.924 108.749 131.399 109.04 130.922C109.331 130.445 109.756 130.047 110.32 129.733C110.878 129.419 111.442 129.262 112 129.262C112.564 129.262 113.085 129.413 113.564 129.721C114.044 130.029 114.45 130.469 114.777 131.043L116.033 133.264C116.36 133.837 116.524 134.411 116.536 134.978C116.548 135.545 116.409 136.071 116.118 136.547C115.827 137.024 115.402 137.423 114.838 137.736C114.28 138.05 113.716 138.207 113.158 138.207ZM114.789 135.823C114.941 135.57 115.014 135.286 115.002 134.978C114.99 134.67 114.899 134.362 114.717 134.049L113.419 131.749C113.243 131.435 113.025 131.194 112.764 131.025C112.509 130.856 112.23 130.765 111.927 130.765C111.63 130.759 111.333 130.844 111.036 131.007C110.738 131.17 110.514 131.381 110.362 131.64C110.211 131.894 110.138 132.177 110.15 132.485C110.162 132.793 110.259 133.101 110.435 133.415L111.733 135.714C111.909 136.028 112.127 136.27 112.382 136.439C112.643 136.608 112.916 136.698 113.219 136.698C113.516 136.704 113.813 136.62 114.11 136.457C114.413 136.294 114.638 136.083 114.789 135.823Z" fill="#4677AB"/>
<path d="M113.576 128.007L114.801 127.029L120.502 130.85L117.997 124.482L119.222 123.504L122.552 132.383L121.563 133.173L113.576 128.007Z" fill="#4677AB"/>
<path d="M119.678 122.985L120.678 121.893L127.374 127.94L126.373 129.039L119.678 122.985ZM120.09 122.526L123.662 118.609L124.717 119.563L121.145 123.48L120.09 122.526ZM122.934 125.098L126.046 121.681L127.095 122.629L123.984 126.045L122.934 125.098ZM125.73 127.627L129.302 123.709L130.357 124.663L126.785 128.58L125.73 127.627Z" fill="#4677AB"/>
<path d="M124.336 117.728L125.143 116.484L132.747 121.355L131.941 122.599L124.336 117.728ZM131.207 121.114L132.347 119.351C132.681 118.838 132.808 118.356 132.729 117.909C132.657 117.462 132.378 117.088 131.905 116.78L129.667 115.344C129.194 115.042 128.733 114.945 128.296 115.066C127.853 115.187 127.471 115.501 127.138 116.014L125.998 117.776L124.803 117.01L125.925 115.277C126.325 114.662 126.774 114.197 127.271 113.895C127.768 113.593 128.296 113.455 128.848 113.491C129.406 113.521 129.97 113.726 130.546 114.094L132.699 115.477C133.263 115.839 133.669 116.261 133.936 116.744C134.197 117.233 134.294 117.764 134.233 118.344C134.167 118.923 133.93 119.527 133.53 120.154L132.414 121.88L131.207 121.114Z" fill="#4677AB"/>
<path d="M139.163 69.0131C140.868 69.0131 142.25 67.6376 142.25 65.9409C142.25 64.2441 140.868 62.8687 139.163 62.8687C137.458 62.8687 136.076 64.2441 136.076 65.9409C136.076 67.6376 137.458 69.0131 139.163 69.0131Z" fill="#4677AB"/>
<path d="M36.6005 120.408C38.3054 120.408 39.6874 119.032 39.6874 117.335C39.6874 115.639 38.3054 114.263 36.6005 114.263C34.8957 114.263 33.5137 115.639 33.5137 117.335C33.5137 119.032 34.8957 120.408 36.6005 120.408Z" fill="#4677AB"/>
<path fill-rule="evenodd" clip-rule="evenodd" d="M114.38 60.095C116.984 62.6659 116.984 66.8343 114.38 69.4052L77.7134 105.614C75.1099 108.184 70.8888 108.184 68.2853 105.614L51.6186 89.1552C49.0151 86.5843 49.0151 82.4159 51.6186 79.845C54.2221 77.274 58.4432 77.274 61.0467 79.845L72.9993 91.6482L104.952 60.095C107.555 57.524 111.777 57.524 114.38 60.095Z" fill="white"/>
</g>
<defs>
<clipPath id="clip0_264_2947">
<rect width="167" height="165" fill="white"/>
</clipPath>
</defs>
</svg>
