<svg width="206" height="190" viewBox="0 0 206 190" fill="none" xmlns="http://www.w3.org/2000/svg">
<path d="M100 177.52C75.4184 177.405 56.6692 166.59 44.2685 145.376C35.9223 131.099 33.4742 116.611 33.0711 113.849L33 113.348V38.3852L100.012 12L167.025 38.3852V113.342L166.953 113.837C166.55 116.604 164.126 131.147 155.815 145.473C143.48 166.735 124.837 177.52 100.398 177.52H100Z" fill="#78B9EB"/>
<path d="M99.8881 169.689H99.5265C77.2859 169.586 60.315 159.798 49.0939 140.597C41.5598 127.704 39.3547 114.635 38.9872 112.145L38.922 111.692L38.9102 44.0647L39.3607 43.8834L99.5383 20.1929L99.7932 20.2956L160.166 44.0647L160.095 112.127C159.728 114.635 157.529 127.77 150.048 140.676C138.88 159.919 122.004 169.683 99.8881 169.689ZM40.3269 45.0555V111.584L40.3861 111.928C40.7477 114.369 42.9113 127.196 50.3091 139.854C61.2575 158.584 77.8194 168.136 99.5324 168.239H99.894C121.477 168.233 137.938 158.711 148.827 139.939C156.177 127.269 158.335 114.375 158.696 111.916L158.756 111.475L158.75 45.0495L99.5443 21.7396L40.3269 45.0555Z" fill="white"/>
<path d="M94.1348 41.6312C95.6651 41.2401 97.6034 40.9964 99.7061 40.9964C101.809 40.9964 103.747 41.2345 105.277 41.6312C105.742 37.7773 107.754 34.6317 110.423 33.3849C109.624 33.0108 108.769 32.8068 107.873 32.8068C106.042 32.8068 104.359 33.6569 103.027 35.0851C103.073 33.3962 102.75 31.6789 102.058 30.3924L99.7061 26L97.354 30.3924C96.7023 31.6052 96.3792 33.1922 96.3792 34.7848C96.3792 34.8868 96.3792 34.9831 96.3849 35.0851C95.053 33.6569 93.3697 32.8068 91.5447 32.8068C90.6493 32.8068 89.7935 33.0108 89 33.3849C91.6581 34.6317 93.6701 37.7773 94.1348 41.6312Z" fill="white"/>
<path d="M39.291 106.58C49.3381 106.339 59.3852 106.221 69.4323 106.131L99.5667 106L129.701 106.131L144.765 106.297L159.835 106.587L144.765 106.878L129.701 107.036L99.5667 107.175L69.4323 107.036C59.3852 106.933 49.3381 106.815 39.291 106.58Z" fill="white"/>
<path d="M100.495 115.017C73.1341 115.182 46.9401 116.627 22.752 119.107L26.4058 151.446C49.6125 149.18 74.603 147.867 100.655 147.708C126.294 147.549 150.92 148.516 173.83 150.437L177.17 118.05C153.271 115.929 127.442 114.851 100.495 115.017Z" fill="#1A6FB0"/>
<path d="M8 127.026C12.7154 126.487 17.5111 125.983 22.3746 125.513L25.905 157.907C21.0476 158.349 14.9991 159.69 10.2836 160.208L20.4119 140.549L8 127.026Z" fill="#1A6FB0"/>
<path d="M191.999 125.893C187.277 125.409 182.476 124.967 177.612 124.559L174.396 156.995C179.26 157.375 185.321 158.639 190.043 159.102L179.723 139.568L191.999 125.893Z" fill="#1A6FB0"/>
<path d="M154.292 129.327C154.292 130.467 153.366 131.393 152.226 131.393C151.086 131.393 150.16 130.467 150.16 129.327C150.16 128.187 151.086 127.261 152.226 127.261C153.366 127.261 154.292 128.187 154.292 129.327Z" fill="white"/>
<path d="M49.5228 129.327C49.5228 130.467 48.5968 131.393 47.4567 131.393C46.3096 131.393 45.3906 130.467 45.3906 129.327C45.3906 128.187 46.3166 127.261 47.4567 127.261C48.5899 127.261 49.5228 128.187 49.5228 129.327Z" fill="white"/>
<path d="M103.892 159.441C103.892 161.335 102.351 162.875 100.451 162.875C98.5507 162.875 97.0098 161.335 97.0098 159.441C97.0098 157.541 98.5507 156 100.451 156C102.351 156 103.892 157.548 103.892 159.441Z" fill="white"/>
<path d="M67.1603 86.2031L70.4474 95.4844L73.717 86.2031H77.1798V99H74.5343V95.502L74.798 89.4639L71.3439 99H69.5334L66.088 89.4727L66.3517 95.502V99H63.715V86.2031H67.1603ZM90.0843 92.8916C90.0843 94.1514 89.8616 95.2559 89.4163 96.2051C88.971 97.1543 88.3323 97.8867 87.5003 98.4023C86.6741 98.918 85.7249 99.1758 84.6527 99.1758C83.5921 99.1758 82.6458 98.9209 81.8138 98.4111C80.9818 97.9014 80.3372 97.1748 79.8802 96.2314C79.4232 95.2822 79.1917 94.1924 79.1859 92.9619V92.3291C79.1859 91.0693 79.4114 89.9619 79.8626 89.0068C80.3196 88.0459 80.9613 87.3105 81.7874 86.8008C82.6195 86.2852 83.5687 86.0273 84.6351 86.0273C85.7015 86.0273 86.6478 86.2852 87.4739 86.8008C88.306 87.3105 88.9476 88.0459 89.3988 89.0068C89.8558 89.9619 90.0843 91.0664 90.0843 92.3203V92.8916ZM87.4124 92.3115C87.4124 90.9697 87.1722 89.9502 86.6917 89.2529C86.2113 88.5557 85.5257 88.207 84.6351 88.207C83.7503 88.207 83.0677 88.5527 82.5872 89.2441C82.1068 89.9297 81.8636 90.9375 81.8577 92.2676V92.8916C81.8577 94.1982 82.098 95.2119 82.5784 95.9326C83.0589 96.6533 83.7503 97.0137 84.6527 97.0137C85.5374 97.0137 86.2171 96.668 86.6917 95.9766C87.1663 95.2793 87.4066 94.2656 87.4124 92.9355V92.3115ZM102.497 99H99.8598L94.727 90.5801V99H92.0903V86.2031H94.727L99.8686 94.6406V86.2031H102.497V99ZM114.258 88.3389H110.339V99H107.702V88.3389H103.835V86.2031H114.258V88.3389ZM126.275 99H123.638V93.5156H118.497V99H115.86V86.2031H118.497V91.3887H123.638V86.2031H126.275V99ZM135.312 95.6426C135.312 95.1445 135.137 94.7637 134.785 94.5C134.434 94.2305 133.801 93.9492 132.887 93.6562C131.973 93.3574 131.249 93.0645 130.716 92.7773C129.263 91.9922 128.536 90.9346 128.536 89.6045C128.536 88.9131 128.729 88.2979 129.116 87.7588C129.509 87.2139 130.068 86.7891 130.795 86.4844C131.527 86.1797 132.348 86.0273 133.256 86.0273C134.17 86.0273 134.984 86.1943 135.699 86.5283C136.414 86.8564 136.968 87.3223 137.36 87.9258C137.759 88.5293 137.958 89.2148 137.958 89.9824H135.321C135.321 89.3965 135.137 88.9424 134.768 88.6201C134.398 88.292 133.88 88.1279 133.212 88.1279C132.567 88.1279 132.066 88.2656 131.709 88.541C131.352 88.8105 131.173 89.168 131.173 89.6133C131.173 90.0293 131.381 90.3779 131.797 90.6592C132.219 90.9404 132.837 91.2041 133.651 91.4502C135.151 91.9014 136.244 92.4609 136.93 93.1289C137.615 93.7969 137.958 94.6289 137.958 95.625C137.958 96.7324 137.539 97.6025 136.701 98.2354C135.863 98.8623 134.735 99.1758 133.317 99.1758C132.333 99.1758 131.436 98.9971 130.628 98.6396C129.819 98.2764 129.201 97.7812 128.773 97.1543C128.352 96.5273 128.141 95.8008 128.141 94.9746H130.786C130.786 96.3867 131.63 97.0928 133.317 97.0928C133.944 97.0928 134.434 96.9668 134.785 96.7148C135.137 96.457 135.312 96.0996 135.312 95.6426Z" fill="#030609"/>
<path d="M69.4563 133.545L71.4403 123.059H74.4668L71.1973 137.796H68.1405L65.7416 127.938L63.3426 137.796H60.2858L57.0164 123.059H60.0429L62.0369 133.525L64.4662 123.059H67.0372L69.4563 133.545ZM82.0303 137.796C81.8954 137.533 81.7975 137.206 81.7368 136.815C81.0283 137.604 80.1071 137.999 78.9735 137.999C77.9005 137.999 77.0098 137.688 76.3013 137.068C75.5995 136.447 75.2486 135.664 75.2486 134.719C75.2486 133.559 75.6771 132.668 76.5341 132.047C77.3978 131.426 78.6428 131.112 80.2691 131.106H81.6153V130.478C81.6153 129.972 81.4837 129.567 81.2206 129.264C80.9641 128.96 80.5559 128.808 79.9958 128.808C79.5032 128.808 79.1152 128.926 78.8318 129.162C78.5551 129.398 78.4168 129.722 78.4168 130.134H75.4915C75.4915 129.5 75.6872 128.913 76.0786 128.373C76.47 127.833 77.0233 127.411 77.7386 127.108C78.4539 126.797 79.2569 126.642 80.1476 126.642C81.4972 126.642 82.5668 126.983 83.3563 127.664C84.1526 128.339 84.5507 129.291 84.5507 130.519V135.266C84.5575 136.305 84.7025 137.091 84.986 137.624V137.796H82.0303ZM79.6112 135.762C80.043 135.762 80.4412 135.667 80.8056 135.478C81.17 135.283 81.4399 135.023 81.6153 134.699V132.816H80.5222C79.0578 132.816 78.2784 133.322 78.184 134.335L78.1738 134.507C78.1738 134.871 78.3021 135.171 78.5585 135.408C78.8149 135.644 79.1658 135.762 79.6112 135.762ZM93.0556 129.587C92.6575 129.533 92.3066 129.506 92.003 129.506C90.8963 129.506 90.1709 129.881 89.8267 130.63V137.796H86.9015V126.844H89.6648L89.7457 128.15C90.3328 127.145 91.146 126.642 92.1852 126.642C92.5091 126.642 92.8127 126.686 93.0961 126.774L93.0556 129.587ZM100.731 129.587C100.332 129.533 99.9815 129.506 99.6779 129.506C98.5712 129.506 97.8458 129.881 97.5016 130.63V137.796H94.5764V126.844H97.3397L97.4207 128.15C98.0077 127.145 98.8209 126.642 99.8601 126.642C100.184 126.642 100.488 126.686 100.771 126.774L100.731 129.587ZM108.294 137.796C108.159 137.533 108.061 137.206 108.001 136.815C107.292 137.604 106.371 137.999 105.237 137.999C104.164 137.999 103.274 137.688 102.565 137.068C101.863 136.447 101.512 135.664 101.512 134.719C101.512 133.559 101.941 132.668 102.798 132.047C103.662 131.426 104.907 131.112 106.533 131.106H107.879V130.478C107.879 129.972 107.748 129.567 107.484 129.264C107.228 128.96 106.82 128.808 106.26 128.808C105.767 128.808 105.379 128.926 105.096 129.162C104.819 129.398 104.681 129.722 104.681 130.134H101.755C101.755 129.5 101.951 128.913 102.342 128.373C102.734 127.833 103.287 127.411 104.002 127.108C104.718 126.797 105.521 126.642 106.411 126.642C107.761 126.642 108.831 126.983 109.62 127.664C110.416 128.339 110.815 129.291 110.815 130.519V135.266C110.821 136.305 110.966 137.091 111.25 137.624V137.796H108.294ZM105.875 135.762C106.307 135.762 106.705 135.667 107.069 135.478C107.434 135.283 107.704 135.023 107.879 134.699V132.816H106.786C105.322 132.816 104.542 133.322 104.448 134.335L104.438 134.507C104.438 134.871 104.566 135.171 104.822 135.408C105.079 135.644 105.43 135.762 105.875 135.762ZM115.858 126.844L115.949 128.11C116.732 127.131 117.781 126.642 119.097 126.642C120.257 126.642 121.121 126.983 121.688 127.664C122.255 128.346 122.545 129.365 122.559 130.721V137.796H119.633V130.792C119.633 130.171 119.498 129.722 119.228 129.446C118.958 129.162 118.51 129.021 117.882 129.021C117.059 129.021 116.441 129.371 116.03 130.073V137.796H113.105V126.844H115.858ZM128.391 124.152V126.844H130.264V128.99H128.391V134.456C128.391 134.861 128.469 135.151 128.624 135.327C128.779 135.502 129.076 135.59 129.515 135.59C129.839 135.59 130.125 135.566 130.375 135.519V137.736C129.802 137.911 129.211 137.999 128.604 137.999C126.552 137.999 125.506 136.963 125.466 134.891V128.99H123.867V126.844H125.466V124.152H128.391ZM136.086 133.656L138.111 126.844H141.249L136.846 139.497L136.603 140.074C135.948 141.504 134.868 142.22 133.364 142.22C132.938 142.22 132.507 142.156 132.068 142.027V139.811L132.513 139.821C133.067 139.821 133.478 139.736 133.748 139.568C134.025 139.399 134.241 139.119 134.396 138.728L134.74 137.827L130.904 126.844H134.052L136.086 133.656Z" fill="white"/>
<path d="M98.2832 78H80.7402V74.5195L89.0195 65.6953C90.1562 64.4531 90.9941 63.3691 91.5332 62.4434C92.084 61.5176 92.3594 60.6387 92.3594 59.8066C92.3594 58.6699 92.0723 57.7793 91.498 57.1348C90.9238 56.4785 90.1035 56.1504 89.0371 56.1504C87.8887 56.1504 86.9805 56.5488 86.3125 57.3457C85.6562 58.1309 85.3281 59.168 85.3281 60.457H80.2305C80.2305 58.8984 80.5996 57.4746 81.3379 56.1855C82.0879 54.8965 83.1426 53.8887 84.502 53.1621C85.8613 52.4238 87.4023 52.0547 89.125 52.0547C91.7617 52.0547 93.8066 52.6875 95.2598 53.9531C96.7246 55.2188 97.457 57.0059 97.457 59.3145C97.457 60.5801 97.1289 61.8691 96.4727 63.1816C95.8164 64.4941 94.6914 66.0234 93.0977 67.7695L87.2793 73.9043H98.2832V78ZM116.621 68.3672H119.522V72.4629H116.621V78H111.541V72.4629H101.047L100.819 69.2637L111.489 52.4062H116.621V68.3672ZM105.881 68.3672H111.541V59.332L111.207 59.9121L105.881 68.3672Z" fill="#030609"/>
</svg>
